<?xml version="1.0" standalone="no"?>
<!DOCTYPE svg PUBLIC "-//W3C//DTD SVG 20010904//EN"
 "http://www.w3.org/TR/2001/REC-SVG-20010904/DTD/svg10.dtd">
<svg version="1.0" xmlns="http://www.w3.org/2000/svg"
 width="700.000000pt" height="700.000000pt" viewBox="0 0 700.000000 700.000000"
 preserveAspectRatio="xMidYMid meet">
<metadata>
Created by potrace 1.14, written by Peter Selinger 2001-2017
</metadata>
<g transform="translate(0.000000,700.000000) scale(0.100000,-0.100000)"
fill="#000000" stroke="none">
<path d="M557 6564 c-1 -1 -27 -5 -57 -8 -183 -22 -318 -92 -457 -236 l-43
-45 0 -2775 0 -2775 59 -62 c104 -107 230 -177 376 -208 74 -16 289 -17 3030
-19 1623 0 2984 3 3025 7 175 18 323 91 449 219 l61 61 0 2777 0 2776 -61 63
c-119 122 -275 199 -439 217 -51 6 -5937 13 -5943 8z m5711 -3063 l-3 -2186
-2767 -2 -2768 -1 0 2182 c0 1201 2 2185 5 2188 3 3 1250 5 2770 5 l2765 0 -2
-2186z"/>
<path d="M1568 4632 l-307 -307 409 -410 c226 -225 409 -413 407 -418 -1 -5
-185 -191 -409 -415 l-407 -407 310 -310 309 -310 723 723 722 722 -720 720
c-396 396 -722 720 -725 720 -3 0 -143 -139 -312 -308z"/>
<path d="M3089 3062 l-26 -3 0 -435 0 -434 41 0 c61 -1 1367 -1 1394 0 l22 0
0 435 c0 341 -3 435 -12 436 -40 2 -1397 3 -1419 1z"/>
</g>
</svg>
